# xmcd
# 
# Track frame offsets:
#     150
#     12888
#     25508
#     35498
#     49049
#     62593
#     75889
#     89973
#     103697
#     116960
#     127541
#     140897
#     153692
#     167621
#     181565
#     195250
#     206327
#     219168
#     231371
#     243004
# 
# Disc length: 3380
# 
# Revision: 3
# Processed by: cddbd v1.5.2PL0 Copyright (c) Steve Scherf et al.
# Submitted via: BonkEnc v1.0.5
# 
DISCID=f90d3214
DTITLE=B.B. King - Blues
DYEAR=2006
DGENRE=Blues
TTITLE0=Everyday I Have The Blues
TTITLE1=Ten Long Years
TTITLE2=Jump With You Baby
TTITLE3=Ruby Lee
TTITLE4=Sneakin' Around (With You)
TTITLE5=Lonely And Blue
TTITLE6=Whole Lotta Love
TTITLE7=You Upset My Baby
TTITLE8=When My Heart Beats Like A Hammer
TTITLE9=I'm King
TTITLE10=Woke Up This Morning (My Baby is Gone)
TTITLE11=Please Love Me
TTITLE12=Blind Love
TTITLE13=You Know I Love You
TTITLE14=Three O'Clock In The Morning Blues
TTITLE15=BB's Blues
TTITLE16=Mistreated Woman
TTITLE17=Miss Martha King
TTITLE18=Hard Workin' Woman
TTITLE19=Don't You Want A Man Like Me
EXTD=
EXTT0=
EXTT1=
EXTT2=
EXTT3=
EXTT4=
EXTT5=
EXTT6=
EXTT7=
EXTT8=
EXTT9=
EXTT10=
EXTT11=
EXTT12=
EXTT13=
EXTT14=
EXTT15=
EXTT16=
EXTT17=
EXTT18=
EXTT19=
PLAYORDER=
